# xmcd
#
# Track frame offsets:
#	150
#	20234
#	43020
#	70438
#	83428
#	106119
#	127928
#	152956
#	175102
#
# Disc length: 2622 seconds
#
# Revision: 1
# Processed by: cddbd v1.5.2PL0 Copyright (c) Steve Scherf et al.
# Submitted via: audiograbber 1.83.01
#
DISCID=6d0a3c09
DTITLE=Marina Heredia - Marina
DYEAR=2010
DGENRE=Flamenco
TTITLE0=No me lo creo - Buleria
TTITLE1=De los peroles - Tangos de Graná
TTITLE2=Pal' Parrón - Soleá
TTITLE3=En el Cafetín - Fandangos del Albaizin
TTITLE4=Cruz vieja - Siguirilla
TTITLE5=Sed - Alegrías
TTITLE6=El Perchel - Malagueña
TTITLE7=Entre chinos - Bulería
TTITLE8=Encarnación -  Cante de Levante
EXTD=
EXTT0=
EXTT1=
EXTT2=
EXTT3=
EXTT4=
EXTT5=
EXTT6=
EXTT7=
EXTT8=
PLAYORDER=
